<?xml version="1.0" encoding="UTF-8"?>
<svg id="Layer_1" data-name="Layer 1" xmlns="http://www.w3.org/2000/svg" version="1.1" viewBox="0 0 122.9 101.3">
  <defs>
    <style>
      .cls-1 {
        fill: #000;
      }

      .cls-1, .cls-2 {
        stroke-width: 0px;
      }

      .cls-2 {
        fill: #ed4a4a;
      }
    </style>
  </defs>
  <path class="cls-1" d="M120.1,36.1c-1.4-1.4-3.3-2.4-5.3-2.7h0v-16.1c0-4.8-2-9.1-5.1-12.2S102.2,0,97.4,0H17.3C12.6,0,8.2,1.9,5.1,5.1,2,8.2,0,12.6,0,17.3v66.6c0,4.8,2,9.1,5.1,12.2,3.1,3.1,7.5,5.1,12.2,5.1h80c4.8,0,9.1-2,12.2-5.1,3.1-3.1,5.1-7.5,5.1-12.2v-9.6c2-.4,3.8-1.4,5.2-2.8,1.8-1.8,2.9-4.3,2.9-7.1v-21.6c0-2.6-1.1-5-2.8-6.8ZM109,18.6c-.1-.1-.2-.2-.4-.3.1.8,0,1.7-.2,2.4.2.5.3,1.1.3,1.6h0c0,.6,0,1.1-.2,1.5.2.7.1,1.5,0,2.2.3,1,.4,2.1.1,3.1.1.4.3.8.4,1.3v2.8h-18.4c-5.6,0-10.6,2.3-14.3,5.9-3.6,3.6-5.9,8.7-5.9,14.2v.9c0,5.5,2.3,10.6,5.9,14.2,3.7,3.6,8.7,5.9,14.2,5.9h18.4v9.5c0,3.2-1.3,6.1-3.4,8.2s-5,3.4-8.2,3.4H17.3c-3.2,0-6.1-1.3-8.2-3.4-2.1-2.1-3.4-5-3.4-8.2V17.3c0-3.2,1.3-6.1,3.4-8.2,2.1-2.1,5-3.4,8.2-3.4h80c3.2,0,6.1,1.3,8.2,3.4,2.1,2.1,3.4,5,3.4,8.2v1.3ZM95.5,53.4c0,4-3.3,7.3-7.3,7.3s-7.3-3.3-7.3-7.3,3.3-7.3,7.3-7.3,7.3,3.3,7.3,7.3Z"/>
  <path class="cls-2" d="M89.8,20c9,0,16.3-.2,19.2,10.5v-11.8c-4.8-4.5-11.6-4.4-19.3-4.4-.4,0-.8,0-2.9,0H18.1c-1.6,0-2.9,1.3-2.9,2.9s1.3,2.9,2.9,2.9h68.8c0,0,1.4,0,2.9,0Z"/>
</svg>