<?xml version="1.0" encoding="UTF-8"?>
<svg id="Layer_1" data-name="Layer 1" xmlns="http://www.w3.org/2000/svg" version="1.1" viewBox="0 0 1057 1057">
  <defs>
    <style>
      .cls-1 {
        fill: #914c9e;
        fill-rule: evenodd;
      }

      .cls-1, .cls-2, .cls-3 {
        stroke-width: 0px;
      }

      .cls-2 {
        fill: #bfbfbf;
      }

      .cls-3 {
        fill: #464646;
      }
    </style>
  </defs>
  <polygon class="cls-2" points="132.5 388.9 187.8 389.2 242.7 389.5 242.7 367.6 242.4 345.7 187.7 345.4 132.9 345.2 132.5 346.5 132 347.8 132.2 368.3 132.5 388.9"/>
  <polygon class="cls-2" points="97.3 524.8 92.4 528.1 90 532.6 87.5 537.1 87.6 543.6 87.6 550.1 89.2 553.7 90.8 557.3 94.8 560.9 98.8 564.5 102.6 565.5 106.4 566.6 220.3 566.6 334.2 566.6 338.3 565.4 342.4 564.1 346.4 560.1 350.4 556.1 351.7 552 352.9 547.9 352.9 539.3 351.7 535.3 350.5 531.2 347.2 527.9 343.8 524.6 340.2 523.1 336.7 521.6 102.1 521.6 97.3 524.8"/>
  <polygon class="cls-2" points="394.9 519.1 397.3 526.6 399.6 534.1 401.8 538.6 403.9 543.1 408.7 548.2 413.4 553.3 418 556.4 422.6 559.5 427.4 562.1 432.2 564.6 434.9 565.9 438 567.1 528.4 567.1 538.4 563.5 544.3 560.3 550.2 557.1 556 551.6 561.7 546.1 565.1 540.6 568.5 535.1 569.6 532.6 570.7 530.1 573.4 521.1 573.3 510.1 573.3 499.1 571.5 494.1 569.8 489.1 566.6 483.2 563.5 477.3 556.9 470.6 550.4 463.9 537.1 457.4 529.4 455.2 484.9 454.9 440.4 454.6 438.1 454.7 436.7 455 435.1 455.8 433.6 456.6 425.4 460.6 417.1 464.5 411.2 470.4 405.3 476.2 402.7 481.2 400.1 486.3 397.5 494.2 394.9 502 394.9 510.6 394.9 519.1"/>
  <polygon class="cls-2" points="964.1 854.6 960.9 849.6 957.7 844.6 953.1 840.7 948.4 836.9 944.2 834.7 940 832.6 933.7 831.1 927.4 829.6 708.3 829.6 489.1 829.6 481.2 828.1 473.2 826.6 464.8 823.7 456.4 820.8 453.4 819.6 450.4 818.4 446.4 816.8 440.4 814.3 434.4 811.8 404.4 799.7 374.4 787.7 367.9 786.7 361.4 785.6 243.9 785.7 126.4 785.8 121.8 787 117.2 788.3 111 791.6 104.8 794.9 99.9 800.3 95 805.6 92.4 811 89.8 816.4 88.8 823.2 87.9 830.1 88.1 873.6 88.4 917.1 165 917.4 241.7 917.6 242.8 911 244 904.5 246.3 899.3 248.6 894.1 253.9 888.3 259.2 882.5 263.6 879.9 268 877.4 274 875.5 280.1 873.6 527.7 873.6 775.4 873.6 779.6 874.6 783.8 875.6 789.6 878.3 795.4 881 801 886.6 806.5 892.1 809.2 897.7 812 903.2 813.2 910.2 814.5 917.1 891.2 917.4 967.9 917.6 967.9 866.8 966 860.7 964.1 854.6"/>
  <path class="cls-2" d="M922.9,102.8l-45.5-.3-5.4,1.2-5.4,1.2-4.5,1.9-4.5,1.9-4.7,3.6-4.7,3.6-3.3,4.4-3.3,4.4h0c0,.7,0,1.3-.2,1.9l.8.3-.9,1.1-.9,1.1-1.7,5.5-1.7,5.5-.6,14.5-.6,14.5h0c0,.5,0,1.1-.3,1.6v2h0v170.6h0v1.8c0,.3,0,.5.2.8,0,.2,0,.4.2.6h.6v21.6l1,6.4,1,6.4,1.8,3.8,1.8,3.8-.6.6c.3.5.4,1,.6,1.5l2.7,4,2.8,4,4.1,3.4,4.1,3.4,5,2.5,5,2.5,11,2.3,46-.3,46-.3V103.1l-45.5-.3h-.4Z"/>
  <path class="cls-3" d="M1055.4,931.8l-5.8-9.4-9.8-5-13.7-.4-13.7-.4-1-55.2-3.2-14.4-5.8-14.2-6.6-11.4-19-19-11.4-6.6-15.6-6.8-15-3.6-446-1-12-4.4-16-6-27-10.4-10-3.6-26-10.4-4-1.8-13-4-18-2.2-173-.6-37,.7v.6s-37,.7-37,.7l-7,2-10,3.4-13.2,6.8-15.8,12.6-11.6,14.4-3.9,8.1-3.9,8.1-2.3,7.5-2.3,7.5-.4,51.6-.4,51.6-28.4.8-8,4.2-2.2,2.4-2.2,2.4-3,7.4v5.3l.2,5.3,1.2,3.2,1.2,3.2,3.3,3.5,3.3,3.5,3.7,1.3,3.7,1.3h1023l8.4-4.4,4.8-6.6,2.4-7.8-1-9.8ZM968.6,917.3l-153.4-.6-2.6-13.8-5.4-11.2-11.2-11-11.6-5.4-8.4-2h-495.4l-6.1,1.9-6.1,1.9-4.4,2.6-4.4,2.6-10.6,11.6-2.3,5.2-2.3,5.2-1.1,6.6-1.1,6.6-76.6-.3-76.6-.3-.6-87,.9-6.9.9-6.9,2.6-5.4,2.6-5.4,4.9-5.3,4.9-5.3,6.2-3.3,6.2-3.3,4.6-1.3h.4s4.6-1.3,4.6-1.3l117.5-.2h117.5l13,2,60,24.2,12,5,4,1.6,6,2.4,8.4,2.9,8.4,2.9,7.9,1.5,7.9,1.5h438.2l12.6,3,8.4,4.2,9.4,7.8,6.4,10,3.8,12.2v50.8Z"/>
  <path class="cls-3" d="M98.2,430l7.6,2.6h165l3.5-1.9,3.5-1.9,1.9-1.6,1.9-1.6,2.1-4,2.1-4v-100l-2.4-4.8-2.4-4.8-4.1-2.7-4.1-2.7-84.1-.2-84.1-.2-3.5,1.5.2.2-3.5,1.5-2.4,2.2-2.4,2.2-1.9,3.7-1.9,3.7v99.8l3,7,6,6ZM133.2,345.3l108.6.6.3,21.8.3,21.8-54.8-.3-54.8-.3-.6-41,1-2.6Z"/>
  <path class="cls-3" d="M3.9,607.8l5.2,12.8,8.4,11.2,3.6,3.4,3.6,3.4,5.9,3.8,5.9,3.8,5.6,2.1,5.6,2.1,14.6,2.8h537.4l17.6-3.8,16.4-8.4,15-15.2,7.4-15,3.6-12,.6-165.6,18.4,1.4,21-2.4,12.8-3,15.2-5,4-1.6,17.5-8.6,17.5-8.6,18-9.6,11.6-6.4h44.5l.6-.6.6-.6-3.6-7.6-1-6.4-1-6.4v-21.6l-52.4.6-32.4,16.9-32.4,16.9-16.2,5.6-7.5,1.6-7.5,1.6-11.1.6-11.1.6-5.2-1.4v-78.4l1.4-2,11.4-8.4,12.8-12.6,7-8.4,38.8-.6,8-3.4,3.8-3.4,4.2-8v-12l-2.3-4.8-2.3-4.8-3.9-2.6-3.9-2.6-9.3-.7-9.3-.7h-39l-10,5-16.6,22-8.6,7.6-5.5,3.4-5.5,3.4-5.4,2.1-5.4,2.1-8.1,1.5-8.1,1.6-6.3-.6-6.3-.6-21.6-5.4-9.2,2.6-10.6,9-23.9,19.6-23.9,19.6-17.6,14.4-17.6,14.4-5.5,2.6-5.5,2.6h-19l-11.4-5.4-4.4-4.1-4.4-4.1-2.6-5.9-2.6-5.9-.6-5.9-.6-5.9,3.4-13,2.4-4,2.4-4,39.6-39.5,39.6-39.5,2.6-4.4,2.6-4.4v-11.5l-2.7-4.6-2.7-4.6-5.4-4-3.9-1.6-3.9-1.6h-4.4l-4.6,1.6-4.6,1.6-10.4,10.9-10.4,10.9-68.9-.3-68.9-.3-.6-3,22.6-27,32.6-39.4,12-9,12.6-6,15.6-4h323l11,2.8,6.6,2,7.2,3.9,7.2,3.9,32.8,22.6,6.1,2.8,6.1,2.8,5.5,1.1,5.5,1.1,17,.6,1.2-29,3.4-11,.9-1.1.9-1.1-3.2-1.2h-16.4l-12-5.8-14-9.6-8.8-5.9-8.8-5.9-7.2-3.8-7.2-3.8-8-2.7-8-2.7-14.6-2.8h-166.2l-166.2.2-6,1.3.2.4-6,1.3-7,2-8,3-16,8-6.5,4.6-6.5,4.6-12.6,11.2-22.1,26.6-22.1,26.6-14.5,17.4-14.5,17.4-3.6,3.8-3.6,3.8H55.7l-7.5,2.1-7.5,2.1-6,3.2-6,3.2-6.7,6.3-6.7,6.3-3.8,6.2-3.8,6.2-2.1,5.5-2.1,5.5-1.1,5.3-1.1,5.3v324.4l1.3,6,1.3,6ZM45.3,272.1l1.1-3.9,3.2-3.6,3.2-3.6,4-1.8.2-.3,4-1.8h348.4v1.5l-9.6,9.5-9.6,9.5-8,11.6-2.9,6.2-2.9,6.2-2,7.9-2,7.9v22.4l2,7.9,2,7.9,9.4,19,9.6,9.6,9.6,9.6,9.6,4.7,9.6,4.7,9.9,2.1,9.9,2.1,19-1,13-3.4,6.4-2.9,6.4-2.9,5-3.6,5-3.6,24.4-20.4,27.6-23,26.2-21.6,7,1,14.5.6,14.5.6,4.4,1v259.8l-2.4,10.2-6.6,7.8-8.6,3.8-533,.6-5.2-1.1-5.2-1.1-7.8-5.6-1.9-3.9-1.9-3.9-.3-159.4-.3-159.4,1.1-3.9Z"/>
  <path class="cls-1" d="M850.3,523.4c-1.5.5-4,1.6-5.7,2.5q-3,1.6-6.1,5t-4.1,7.4c-1,3.8-1.1,4.1-1.1,7.2s0,3.2,1.9,7.3,1.9,4.1,5.5,8.1q3.6,4,3.3,4.9c-.1.5-.3.9-.3,1,0,0-28.9.3-64.2.5q-64.1.5-67.2,2.2c-3.1,1.7-3.1,1.7-5.4,4.4-1.3,1.5-2.5,3-2.7,3.3s-.8,2.2-1.3,4.2c-1,3.6-1,3.6-1,7.9s0,4.3,1.9,8.4q1.9,4,4.8,6.7c2.8,2.6,2.9,2.7,5.9,4q3,1.3,61.7,1.6c32.3.2,60.8.3,63.4.3q4.7,0,4.7,1.3,0,1.3-3.5,4.6-3.5,3.4-5.5,7.4-2,4.1-2,8.5,0,4.4,2,8.5,2,4.1,5.3,7.3,3.4,3.2,7.7,4.6c4.3,1.4,4.3,1.4,6.9,1.4s2.6,0,7.8-2.5q5.2-2.5,29.2-26.8,24-24.3,26-29,2-4.7,2-8,0-3.3-1.6-7.2-1.6-3.9-26.1-28.6-24.4-24.6-28.5-26.6c-4-1.9-4-1.9-7.3-2.4-1.8-.3-3.5-.5-3.7-.5-.2,0-1.6.4-3,.9"/>
</svg>