<?xml version="1.0" encoding="UTF-8"?>
<svg id="Sim-Card-2--Streamline-Ultimate.svg" xmlns="http://www.w3.org/2000/svg" version="1.1" viewBox="0 0 48 48">
  <defs>
    <style>
      .cls-1 {
        stroke: #c40000;
      }

      .cls-1, .cls-2, .cls-3, .cls-4 {
        fill: none;
        stroke-linecap: round;
        stroke-linejoin: round;
        stroke-width: 2px;
      }

      .cls-2 {
        stroke: #c61818;
      }

      .cls-3 {
        stroke: #000;
      }

      .cls-4 {
        stroke: #bc1717;
      }
    </style>
  </defs>
  <path class="cls-1" d="M13.2,1.4v7.9"/>
  <path class="cls-2" d="M19.1,1.4v7.9"/>
  <path class="cls-4" d="M25,1.4v7.9"/>
  <path class="cls-3" d="M40.7,44.7c0,1.1-.9,2-2,2H9.2c-1.1,0-2-.9-2-2V3.3c0-1.1.9-2,2-2h20.7c.6,0,1.1.3,1.5.7l8.8,10.7c.3.4.4.8.4,1.2v30.6Z"/>
  <path class="cls-3" d="M17.1,23h13.8s3.9,0,3.9,3.9v9.8s0,3.9-3.9,3.9h-13.8s-3.9,0-3.9-3.9v-9.8s0-3.9,3.9-3.9"/>
  <path class="cls-3" d="M19.1,40.7v-17.7"/>
  <path class="cls-3" d="M28.9,40.7v-17.7"/>
  <path class="cls-3" d="M28.9,28.9h5.9"/>
  <path class="cls-3" d="M13.2,28.9h5.9"/>
  <path class="cls-3" d="M28.9,34.8h5.9"/>
  <path class="cls-3" d="M13.2,34.8h5.9"/>
</svg>