<?xml version="1.0" encoding="UTF-8"?>
<svg id="Layer_1" data-name="Layer 1" xmlns="http://www.w3.org/2000/svg" version="1.1" viewBox="0 0 800 754.5">
  <defs>
    <style>
      .cls-1 {
        fill: #e73b37;
      }

      .cls-1, .cls-2, .cls-3 {
        stroke-width: 0px;
      }

      .cls-2 {
        fill: #343535;
      }

      .cls-3 {
        fill: #39393a;
      }
    </style>
  </defs>
  <path class="cls-3" d="M800,150.9H162.4L130.1,0H0v39.3h98.4l23.8,111.6,89.5,419.5,473.1.4v-39.3l-441.3-.3-20.2-94.5h462.3l114.3-285.7ZM742,190.2l-35.3,88H189.6l-18.8-88h571.2ZM215,397.4l-22.4-104.9h508.4l-42,104.9H215Z"/>
  <path class="cls-1" d="M278.2,643.8c25.6,0,46.4,20.8,46.4,46.4s-20.8,46.4-46.4,46.4-46.4-20.8-46.4-46.4,20.8-46.4,46.4-46.4M278.2,626c-35.4,0-64.3,28.7-64.3,64.3s28.7,64.3,64.3,64.3,64.3-28.7,64.3-64.3-28.8-64.3-64.3-64.3ZM596.4,643.8c25.6,0,46.4,20.8,46.4,46.4s-20.8,46.4-46.4,46.4-46.4-20.8-46.4-46.4,20.8-46.4,46.4-46.4M596.4,626c-35.4,0-64.3,28.7-64.3,64.3s28.7,64.3,64.3,64.3,64.3-28.7,64.3-64.3-28.8-64.3-64.3-64.3ZM342.4,190.2h14.3v207.2h-14.3v-207.2ZM525,190.2h14.3v207.2h-14.3v-207.2Z"/>
  <path class="cls-2" d="M189.6,278.2l3,14.3-3-14.3Z"/>
</svg>