<?xml version="1.0" encoding="utf-8"?>
<!-- Generator: Adobe Illustrator 28.1.0, SVG Export Plug-In . SVG Version: 6.00 Build 0)  -->
<svg version="1.1" id="Layer_1" xmlns="http://www.w3.org/2000/svg" xmlns:xlink="http://www.w3.org/1999/xlink" x="0px" y="0px"
	 viewBox="0 0 800 800" style="enable-background:new 0 0 800 800;" xml:space="preserve">
<style type="text/css">
	.st0{fill:none;stroke:#292D32;stroke-width:35;stroke-linecap:round;stroke-linejoin:round;stroke-miterlimit:333.3333;}
	
		.st1{fill:none;stroke:#000000;stroke-width:35;stroke-linecap:round;stroke-linejoin:round;stroke-miterlimit:133.3333;enable-background:new    ;}
	
		.st2{fill:none;stroke:#292D32;stroke-width:35;stroke-linecap:round;stroke-linejoin:round;stroke-miterlimit:133.3333;enable-background:new    ;}
</style>
<path class="st0" d="M759.9,173.5v87.1c0,56.9-36,92.9-92.9,92.9H544V101.9c0-40,32.8-72.3,72.7-72.3c39.2,0.4,75.2,16.2,101.1,42.1
	C743.8,98,759.9,134,759.9,173.5z"/>
<path class="st0" d="M40.1,209.5v503.9c0,29.9,33.8,46.8,57.6,28.8l61.6-46.1c14.4-10.8,34.6-9.4,47.5,3.6l59.8,60.1
	c14,14,37.1,14,51.1,0l60.5-60.5c12.6-12.6,32.8-14,46.8-3.2l61.6,46.1c23.8,17.6,57.6,0.7,57.6-28.8V101.6c0-39.6,32.4-72,72-72
	H220h-36c-108,0-144,64.4-144,144V209.5z"/>
<path class="st1" d="M184,281.5h216"/>
<path class="st2" d="M211,425.5h162"/>
</svg>
